<?xml version="1.0" encoding="utf-8"?>
<!-- Generator: Adobe Illustrator 16.0.0, SVG Export Plug-In . SVG Version: 6.00 Build 0)  -->
<!DOCTYPE svg PUBLIC "-//W3C//DTD SVG 1.1//EN" "http://www.w3.org/Graphics/SVG/1.1/DTD/svg11.dtd">
<svg version="1.1" id="Layer_1" xmlns="http://www.w3.org/2000/svg" xmlns:xlink="http://www.w3.org/1999/xlink" x="0px" y="0px"
	 width="612px" height="792px" viewBox="0 0 612 792" enable-background="new 0 0 612 792" xml:space="preserve">
<g>
	<g>
		<path fill-rule="evenodd" clip-rule="evenodd" fill="none" d="M727.379,556.657c-280.649,0-561.274,0-841.875,0
			c0-106.408,0-212.793,0-319.154c280.648,0,561.274,0,841.875,0C727.379,343.912,727.379,450.296,727.379,556.657z M-61.015,361.59
			c-0.158-0.167-0.317-0.333-0.475-0.5c0.567-0.557,1.198-1.064,1.685-1.685c0.548-0.699,0.601-1.612-0.085-2.169
			c-0.477-0.388-1.276-0.459-1.941-0.499c-0.337-0.021-0.728,0.303-1.042,0.541c-2.101,1.592-4.237,3.144-6.266,4.826
			c-1.998,1.656-1.695,3.575,0.711,4.627c2.34,1.024,4.737,1.916,7.112,2.859c0.295,0.117,0.656,0.342,0.901,0.261
			c0.707-0.234,1.56-0.436,2.002-0.953c0.573-0.67,0.233-1.538-0.408-2.137c-0.391-0.365-0.876-0.629-1.836-1.3
			c2.454-0.228,4.372-0.405,6.384-0.591c1.144,4.967,3.395,9.003,7.497,11.804c4.073,2.782,8.53,3.851,13.433,2.95
			c8.5-1.562,14.761-9.044,14.71-17.633c-0.05-8.602-6.444-16.08-14.871-17.507c-4.287-0.726-8.283,0.008-11.994,2.176
			c-5.421,3.167-8.181,8.108-8.987,14.419C-56.755,361.256-58.885,361.423-61.015,361.59z M479.641,438.228
			c0.108,1.69,0.092,3.204,0.319,4.679c1.54,9.982,6.994,17.346,15.418,22.623c7.702,4.825,16.221,7.105,25.23,7.492
			c8.143,0.349,16.173-0.505,23.714-3.816c10.636-4.67,17.645-12.284,18.658-24.345c0.652-7.769-1.023-14.942-6.048-21.119
			c-2.918-3.587-6.535-6.33-10.515-8.621c-5.506-3.169-11.438-5.315-17.467-7.226c-4.492-1.424-9.011-2.771-13.463-4.313
			c-3.632-1.258-7.099-2.917-10.202-5.238c-5.95-4.452-8.042-10.66-6.012-17.817c1.843-6.498,6.491-10.129,12.664-11.928
			c6.822-1.987,13.768-2.029,20.59-0.007c8.159,2.417,13.177,7.86,14.715,16.317c0.268,1.471,0.308,2.984,0.458,4.53
			c5.073,0,9.986,0,14.973,0c0.34-3.301-0.271-6.344-1.194-9.317c-3.514-11.315-11.297-18.53-22.175-22.567
			c-8.351-3.1-17.002-3.525-25.766-2.212c-6.838,1.025-13.157,3.354-18.646,7.645c-9.185,7.179-13.02,16.583-11.223,28.103
			c1.172,7.508,5.356,13.233,11.399,17.669c5.667,4.16,12.013,6.977,18.628,9.209c5.373,1.813,10.862,3.306,16.162,5.306
			c3.79,1.43,7.402,3.369,10.995,5.269c2.072,1.095,3.604,2.886,4.794,4.935c4.872,8.39,1.85,19.233-6.711,23.773
			c-1.609,0.854-3.359,1.524-5.12,1.993c-6.038,1.605-12.157,1.693-18.309,0.684c-4.318-0.709-8.357-2.125-11.952-4.668
			c-5.212-3.688-8.146-8.674-8.568-15.088c-0.04-0.619-0.156-1.233-0.249-1.942C489.77,438.228,484.917,438.228,479.641,438.228z
			 M230.205,393.659c-0.165,0.06-0.33,0.12-0.494,0.18c-0.568-0.539-1.135-1.08-1.704-1.618c-3.127-2.96-6.737-5.099-10.838-6.425
			c-4.09-1.322-8.291-1.656-12.552-1.487c-7.422,0.293-13.844,2.98-19.185,8.148c-5.685,5.501-9.091,12.289-10.954,19.894
			c-2.002,8.172-2.151,16.472-1.31,24.785c0.665,6.57,2.371,12.89,5.643,18.688c5.418,9.603,13.09,16.127,24.48,17.071
			c10.13,0.841,19.191-1.666,26.322-9.402c0.23-0.25,0.548-0.419,1.003-0.761c0.26,2.96,0.496,5.649,0.742,8.451
			c4.5,0,8.849,0,13.272,0c0-40.472,0-80.809,0-121.186c-4.853,0-9.538,0-14.428,0C230.205,364.634,230.205,379.146,230.205,393.659
			z M163.037,471.235c-14.696-38.46-29.264-76.583-43.817-114.668c-4.565,0-8.937,0-13.398,0
			C91.247,394.779,76.702,432.912,62.1,471.199c5.359,0,10.452,0,15.616,0c3.603-9.976,7.175-19.868,10.729-29.709
			c16.167,0,32.071,0,48.148,0c3.652,9.955,7.298,19.896,10.911,29.745C152.77,471.235,157.717,471.235,163.037,471.235z
			 M648.255,456.476c-2.975-2.329-5.852-4.581-8.804-6.894c-4.41,5.094-9.203,9.344-15.902,10.738
			c-6.549,1.363-12.886,0.985-18.827-2.355c-8.148-4.583-14.503-16.836-12.737-24.746c19.03,0,38.106,0,57.288,0
			c0.074-0.733,0.188-1.276,0.174-1.815c-0.104-3.995-0.091-8-0.393-11.98c-0.382-5.036-1.436-9.964-3.339-14.667
			c-3.148-7.78-8.109-14.092-15.951-17.396c-11.703-4.931-23.264-4.433-34.175,2.442c-8.515,5.365-13.743,13.285-16.44,22.829
			c-3.038,10.75-3.072,21.659-0.393,32.473c2.171,8.762,7.087,15.841,14.439,21.143c5.734,4.136,12.233,6.165,19.223,6.685
			c7.957,0.591,15.646-0.457,22.801-4.196C640.637,465.901,644.899,461.801,648.255,456.476z M467.999,433.299
			c0-2.287,0.024-4.194-0.004-6.101c-0.114-7.547-0.8-15.004-3.606-22.112c-3.215-8.144-8.437-14.492-16.615-17.997
			c-7.35-3.149-15.045-3.764-22.785-1.896c-11.759,2.838-20.023,10.181-24.858,21.084c-6.056,13.651-6.366,27.872-1.771,41.909
			c3.869,11.817,12.223,19.709,24.291,23.236c8.419,2.461,16.917,2.267,25.297-0.276c8.048-2.443,14.206-7.435,18.888-14.647
			c-2.973-2.329-5.892-4.616-8.805-6.899c-10.889,13.52-24.866,13.079-33.383,9.079c-8.955-4.207-15.483-15.906-14.221-25.379
			C429.483,433.299,448.568,433.299,467.999,433.299z M263.325,428.434c0.453,4.122,0.692,8.282,1.406,12.358
			c1.321,7.548,4.457,14.314,9.579,20.085c6.407,7.221,14.459,11.073,24.057,11.991c16.707,1.6,32.151-6.219,38.82-22.437
			c5.855-14.241,5.69-28.731,0.208-43.033c-3.128-8.16-8.732-14.467-16.441-18.737c-6.41-3.551-13.369-4.689-20.611-4.349
			c-12.821,0.602-22.807,6.244-29.682,17.096C265.458,409.621,263.469,418.748,263.325,428.434z M19.455,337.144
			c-0.243-0.066-0.485-0.133-0.729-0.199c-3.581,6.661-6.304,13.682-8.219,21.014c-1.906,7.298-2.985,14.755-3.919,22.278
			c-0.419-0.46-0.685-0.923-0.882-1.413c-3.641-8.99-8.033-17.608-13.157-25.831c-3.209-5.149-6.734-10.103-10.161-15.115
			c-0.514-0.752-1.266-1.341-1.908-2.006c-0.192,0.738-0.021,1.234,0.18,1.718c1.563,3.763,3.359,7.447,4.649,11.301
			c2.891,8.636,5.577,17.341,8.259,26.045c3.813,12.373,7.582,24.759,11.289,37.163c0.766,2.563,1.18,5.23,1.835,8.208
			c-4.41-4.608-8.388-8.96-12.581-13.094c-4.177-4.118-9.02-7.394-14.122-10.281c-5.052-2.859-9.682-6.57-15.586-7.75
			c1.407,1.433,3.03,2.551,4.483,3.859c6.062,5.457,12.06,10.983,18.105,16.459c7.554,6.842,14.118,14.592,20.626,22.396
			c0.735,0.882,1.201,1.82,1.315,3.005c0.452,4.691,1.093,9.367,1.463,14.064c1.022,12.991,1.924,25.991,2.922,38.984
			c0.171,2.226,0.396,4.479,0.934,6.636c0.827,3.311,3.037,4.888,6.47,4.98c4.031,0.109,7.767-1.03,11.202-3.024
			c2.85-1.655,4.705-4.198,4.819-7.569c0.097-2.858,0.059-5.773-0.391-8.588c-1.617-10.117-4.079-20.064-7.126-29.829
			c-5.476-17.546-11.25-34.999-16.94-52.478c-0.506-1.555-0.748-3.07-0.625-4.7c0.707-9.417,1.995-18.757,3.492-28.075
			c1.293-8.049,2.499-16.111,3.737-24.168C19.096,339.807,19.268,338.474,19.455,337.144z M375.508,471.215
			c0-40.018,0-79.742-0.005-119.468c0-0.477-0.061-0.953-0.106-1.429c-0.007-0.064-0.093-0.122-0.146-0.179
			c-0.055-0.058-0.115-0.111-0.281-0.27c-2.206,0-4.521,0-6.837,0c-2.37,0-4.74,0-7.161,0c0,40.637,0,80.962,0,121.346
			C365.832,471.215,370.524,471.215,375.508,471.215z M666.215,385.996c0,28.578,0,56.853,0,85.105
			c3.357,0.441,12.756,0.302,14.535-0.238c0-0.82,0-1.689,0-2.559c0-18.473-0.01-36.945,0.023-55.418
			c0.002-1.168,0.091-2.45,0.566-3.482c2.411-5.235,6.423-8.695,12.038-10.146c3.193-0.824,6.453-1.083,9.753-0.732
			c1.318,0.14,2.648,0.175,4.083,0.265c0-4.634,0-9.006,0-13.394c-1.839-1.13-3.855-1.144-5.841-1.087
			c-1.989,0.057-4.013,0.12-5.945,0.534c-1.931,0.414-3.869,1.071-5.617,1.982c-1.749,0.912-3.368,2.154-4.854,3.465
			c-1.451,1.28-2.662,2.832-4.36,4.68c-0.14-3.371-0.257-6.183-0.373-8.976C675.393,385.996,670.863,385.996,666.215,385.996z
			 M54.275,372.684c0.879-0.175,1.497-0.294,2.113-0.42c0.86-0.176,1.741-0.29,2.574-0.554c0.929-0.294,1.476-0.986,1.325-2.007
			c-0.152-1.027-0.881-1.497-1.858-1.526c-0.55-0.017-1.105,0.122-1.656,0.203c-1.007,0.148-2.012,0.306-3.211,0.489
			c-0.482-2.696-0.928-5.189-1.409-7.88c6.182-1.769,11.102-5.091,14.216-10.707c3.159-5.696,3.651-11.652,1.573-17.817
			c-3.293-9.769-13.473-15.841-23.894-14.265c-10.329,1.562-18.254,10.689-18.331,21.187c-0.039,5.311,1.631,10.063,5.044,14.146
			c4.539,5.429,10.501,7.852,17.636,7.921c0.479,2.764,0.932,5.386,1.396,8.072c-0.948,0.202-1.568,0.333-2.188,0.465
			c-0.859,0.183-1.742,0.293-2.571,0.567c-0.917,0.303-1.481,0.985-1.302,2.016c0.178,1.025,0.938,1.461,1.898,1.493
			c0.549,0.019,1.104-0.135,1.657-0.216c1.01-0.147,2.021-0.297,3.164-0.466c0.247,1.266,0.449,2.359,0.677,3.447
			c0.164,0.78,0.279,1.586,0.568,2.32c0.318,0.805,1.005,1.267,1.909,1.128c0.904-0.139,1.4-0.77,1.476-1.649
			c0.046-0.546-0.05-1.111-0.13-1.661C54.757,375.635,54.534,374.306,54.275,372.684z M-30.864,298.215
			c-5.264-2.776-10.536-3.794-16.168-2.274c-5.705,1.541-9.985,4.877-12.918,9.975c-4.964,8.624-2.824,19.942,4.95,26.242
			c8.188,6.635,19.67,6.313,27.431-0.859c3.783-3.496,5.967-7.9,6.504-13.018c0.733-6.974-1.813-12.821-6.726-17.801
			c1.875-2.785,3.644-5.413,5.482-8.143c1.498,0.962,2.731,1.84,4.046,2.572c0.91,0.506,1.893,0.479,2.542-0.509
			c0.566-0.861,0.343-1.694-0.351-2.386c-0.335-0.335-0.752-0.591-1.144-0.866c-0.909-0.637-1.826-1.264-2.896-2.004
			c0.585-0.892,1.11-1.672,1.615-2.466c0.556-0.875,1.168-1.727,1.614-2.656c0.384-0.8,0.132-1.589-0.608-2.118
			c-0.743-0.531-1.559-0.493-2.202,0.116c-0.571,0.542-1.012,1.226-1.481,1.869c-0.729,1-1.434,2.02-2.152,3.035
			c-1.565-0.986-2.82-1.845-4.143-2.583c-0.867-0.484-1.751-0.286-2.333,0.548c-0.583,0.836-0.434,1.711,0.288,2.387
			c0.579,0.541,1.274,0.958,1.919,1.428c0.679,0.495,1.361,0.987,2.113,1.533C-27.331,292.979-29.024,295.488-30.864,298.215z
			 M-44.486,417.256c5.681-6.201,7.138-8.65,7.661-13.096c0.626-5.332-0.657-10.15-4.044-14.362
			c-5.646-7.02-15.866-8.984-23.618-4.541c-8.353,4.788-11.828,14.497-8.304,23.346c1.725,4.331,4.707,7.587,8.849,9.713
			c5.13,2.634,10.435,2.652,15.986,0.624c0.887,1.56,1.729,3.04,2.603,4.575c-1.121,0.846-2.046,1.472-2.888,2.195
			c-1.032,0.889-1.196,1.878-0.567,2.729c0.621,0.842,1.571,0.951,2.782,0.243c0.869-0.507,1.693-1.091,2.59-1.674
			c0.542,0.806,0.921,1.408,1.339,1.982c0.634,0.871,1.465,1.254,2.5,0.778c0.917-0.422,1.171-1.498,0.642-2.721
			c-0.341-0.788-0.774-1.537-1.194-2.359c0.528-0.452,0.928-0.828,1.362-1.159c2.228-1.696,2.725-2.669,1.894-3.75
			c-0.793-1.031-1.764-0.884-3.987,0.587c-0.386,0.255-0.805,0.462-1.378,0.787C-43.056,419.76-43.788,418.479-44.486,417.256z
			 M4.441,331.696c10.067-3.561,14.45-9.882,12.981-18.392c-1.236-7.158-7.693-12.569-15.08-12.638
			c-7.561-0.071-13.99,5.27-15.373,12.856c-0.653,3.582-0.04,6.999,1.75,10.178c2.607,4.632,6.762,7.037,11.94,7.983
			c0.102,2.176,0.196,4.196,0.307,6.593c-0.77-0.455-1.169-0.657-1.532-0.912c-0.805-0.567-1.644-0.718-2.411-0.033
			c-0.862,0.77-0.799,1.75-0.167,2.595c1.577,2.109,3.132,4.248,4.882,6.208c1.249,1.398,2.761,1.218,3.834-0.327
			c1.457-2.097,2.822-4.263,4.139-6.451c0.755-1.254,0.5-2.397-0.463-2.933c-0.847-0.472-1.815-0.133-2.682,0.913
			c-0.471,0.568-0.615,1.458-1.63,1.721C4.768,336.548,4.608,334.171,4.441,331.696z M28.059,394.926
			c3.631,0.303,6.944-0.344,9.805-2.567c2.853-2.216,4.561-5.122,5.003-8.702c0.763-6.169-2.9-11.93-8.731-13.854
			c-5.91-1.95-12.202,0.427-15.303,5.798c-1.489,2.579-2.07,5.355-1.628,8.309c0.675,4.503,3.298,7.67,7.179,9.966
			c-0.541,2.15-1.045,4.156-1.633,6.492c-0.415-0.586-0.564-0.767-0.68-0.967c-0.576-0.992-1.332-1.643-2.545-1.165
			c-1.014,0.398-1.319,1.453-0.762,2.879c0.697,1.786,1.443,3.558,2.27,5.287c0.767,1.604,2.509,2.526,3.696,1.694
			c1.946-1.362,3.697-3.026,5.389-4.705c0.344-0.341,0.313-1.48-0.001-1.944c-0.307-0.454-1.183-0.64-1.833-0.706
			c-0.465-0.048-0.971,0.297-1.677,0.542c0.088-0.595,0.115-0.976,0.204-1.342C27.205,398.318,27.616,396.7,28.059,394.926z
			 M-15.583,421.879c-0.126-6.493-2.225-9.689-6.927-10.811c-3.808-0.908-7.852,0.99-9.664,4.538
			c-1.864,3.648-1.011,7.963,2.109,10.673c3.548,3.081,7.466,2.814,12.703-0.941c0.437,0.153,0.966,0.31,1.47,0.525
			c0.554,0.237,1.085,0.529,1.723,0.846c-0.313,0.278-0.477,0.446-0.664,0.584c-0.883,0.653-1.279,1.491-0.679,2.485
			c0.579,0.96,1.534,1.061,2.54,0.747c1.524-0.475,3.072-0.895,4.558-1.472c1.503-0.583,1.875-1.401,1.335-2.804
			c-0.544-1.414-1.201-2.787-1.835-4.165c-0.366-0.797-0.719-1.612-1.2-2.339c-0.485-0.732-1.332-1.093-2.087-0.633
			c-0.524,0.32-0.903,1.039-1.116,1.658c-0.183,0.529-0.038,1.172-0.038,1.925C-14.19,422.39-14.847,422.148-15.583,421.879z
			 M-22.764,388.44c1.88-0.34,2.178,0.876,2.652,2.131c1.29,3.417,4.597,5.358,8.164,4.947c3.5-0.404,6.315-3.019,6.864-6.377
			c0.606-3.709-1.238-7.184-4.579-8.63c-3.286-1.422-7.034-0.504-9.299,2.299c-0.493,0.61-0.923,1.271-1.43,1.975
			c-0.658-0.165-1.254-0.314-1.819-0.455c0-0.76,0.049-1.398-0.012-2.026c-0.083-0.874-0.545-1.525-1.442-1.69
			c-1.013-0.187-1.695,0.318-2.054,1.243c-0.25,0.642-0.435,1.309-0.635,1.92c-2.359-0.085-3.069,0.199-3.371,1.278
			c-0.337,1.204,0.201,1.738,2.978,2.884c-0.065,0.58-0.182,1.199-0.194,1.821c-0.023,1.062,0.387,1.928,1.507,2.138
			c1.129,0.212,1.804-0.425,2.114-1.478C-23.12,389.739-22.936,389.055-22.764,388.44z"/>
		<path fill-rule="evenodd" clip-rule="evenodd" fill="#FF298F" d="M479.641,438.228c5.276,0,10.129,0,15.1,0
			c0.093,0.709,0.209,1.323,0.249,1.942c0.422,6.414,3.356,11.4,8.568,15.088c3.595,2.543,7.634,3.959,11.952,4.668
			c6.151,1.01,12.271,0.922,18.309-0.684c1.761-0.469,3.511-1.14,5.12-1.993c8.561-4.54,11.583-15.384,6.711-23.773
			c-1.189-2.049-2.722-3.84-4.794-4.935c-3.593-1.899-7.205-3.839-10.995-5.269c-5.3-2-10.789-3.492-16.162-5.306
			c-6.615-2.232-12.961-5.049-18.628-9.209c-6.043-4.436-10.228-10.161-11.399-17.669c-1.797-11.52,2.038-20.923,11.223-28.103
			c5.488-4.291,11.808-6.62,18.646-7.645c8.764-1.313,17.415-0.888,25.766,2.212c10.878,4.037,18.661,11.252,22.175,22.567
			c0.923,2.973,1.534,6.016,1.194,9.317c-4.986,0-9.899,0-14.973,0c-0.15-1.546-0.19-3.059-0.458-4.53
			c-1.538-8.458-6.556-13.9-14.715-16.317c-6.822-2.022-13.768-1.98-20.59,0.007c-6.173,1.799-10.821,5.43-12.664,11.928
			c-2.03,7.157,0.062,13.365,6.012,17.817c3.104,2.321,6.57,3.98,10.202,5.238c4.452,1.542,8.971,2.89,13.463,4.313
			c6.029,1.91,11.961,4.057,17.467,7.226c3.979,2.291,7.597,5.034,10.515,8.621c5.024,6.177,6.7,13.351,6.048,21.119
			c-1.014,12.061-8.022,19.675-18.658,24.345c-7.541,3.312-15.571,4.165-23.714,3.816c-9.01-0.387-17.528-2.667-25.23-7.492
			c-8.424-5.277-13.878-12.641-15.418-22.623C479.732,441.432,479.749,439.918,479.641,438.228z"/>
		<path fill-rule="evenodd" clip-rule="evenodd" fill="#02A8FF" d="M230.205,393.659c0-14.513,0-29.025,0-43.661
			c4.89,0,9.576,0,14.428,0c0,40.376,0,80.714,0,121.186c-4.424,0-8.772,0-13.272,0c-0.246-2.802-0.482-5.491-0.742-8.451
			c-0.456,0.342-0.773,0.511-1.003,0.761c-7.131,7.736-16.192,10.243-26.322,9.402c-11.39-0.944-19.063-7.469-24.48-17.071
			c-3.272-5.799-4.978-12.118-5.643-18.688c-0.842-8.313-0.693-16.613,1.31-24.785c1.863-7.604,5.269-14.393,10.954-19.894
			c5.34-5.168,11.762-7.855,19.185-8.148c4.261-0.168,8.462,0.165,12.552,1.487c4.101,1.326,7.71,3.465,10.838,6.425
			c0.569,0.539,1.136,1.079,1.704,1.618C229.875,393.779,230.04,393.719,230.205,393.659z M230.139,428.521
			c0-5.92-0.044-11.84,0.031-17.759c0.019-1.527-0.409-2.774-1.229-4.018c-4.634-7.028-11.205-10.175-19.538-9.984
			c-7.491,0.172-13.23,3.395-17.039,9.813c-1.252,2.108-2.242,4.438-2.959,6.786c-2.181,7.136-2.408,14.492-1.823,21.863
			c0.407,5.131,1.587,10.105,4.17,14.646c2.536,4.458,5.983,7.922,10.954,9.544c8.745,2.854,20.378,0.915,26.465-9.518
			c0.671-1.151,0.997-2.285,0.987-3.615C230.114,440.359,230.139,434.44,230.139,428.521z"/>
		<path fill-rule="evenodd" clip-rule="evenodd" fill="#03A8FF" d="M163.037,471.235c-5.32,0-10.267,0-15.533,0
			c-3.613-9.85-7.259-19.79-10.911-29.745c-16.077,0-31.981,0-48.148,0c-3.554,9.841-7.127,19.733-10.729,29.709
			c-5.164,0-10.257,0-15.616,0c14.603-38.287,29.147-76.42,43.721-114.632c4.461,0,8.833,0,13.398,0
			C133.772,394.653,148.34,432.775,163.037,471.235z M93.073,428.806c13.194,0,25.88,0,38.596,0c0.025-0.349,0.12-0.609,0.047-0.809
			c-6.312-17.336-12.636-34.667-18.966-51.997c-0.016-0.043-0.128-0.065-0.198-0.072c-0.075-0.009-0.152,0.011-0.341,0.03
			C105.874,393.46,99.519,411.008,93.073,428.806z"/>
		<path fill-rule="evenodd" clip-rule="evenodd" fill="#FF298F" d="M648.255,456.476c-3.355,5.325-7.618,9.426-13.036,12.258
			c-7.154,3.739-14.844,4.787-22.801,4.196c-6.989-0.52-13.488-2.549-19.223-6.685c-7.353-5.302-12.269-12.381-14.439-21.143
			c-2.68-10.813-2.646-21.723,0.393-32.473c2.697-9.544,7.926-17.463,16.44-22.829c10.911-6.875,22.472-7.373,34.175-2.442
			c7.842,3.304,12.803,9.616,15.951,17.396c1.903,4.703,2.957,9.631,3.339,14.667c0.302,3.98,0.288,7.985,0.393,11.98
			c0.015,0.539-0.1,1.082-0.174,1.815c-19.182,0-38.258,0-57.288,0c-1.766,7.91,4.589,20.163,12.737,24.746
			c5.941,3.341,12.278,3.719,18.827,2.355c6.699-1.395,11.492-5.645,15.902-10.738C642.403,451.895,645.28,454.146,648.255,456.476z
			 M634.909,420.664c-0.232-2.095-0.351-3.918-0.649-5.712c-0.774-4.646-2.479-8.872-5.646-12.47
			c-6.445-7.32-20.41-7.804-28.003-0.594c-4.605,4.373-6.936,9.843-8.092,15.934c-0.171,0.899-0.248,1.816-0.384,2.842
			C606.411,420.664,620.433,420.664,634.909,420.664z"/>
		<path fill-rule="evenodd" clip-rule="evenodd" fill="#03A8FF" d="M467.999,433.299c-19.431,0-38.516,0-57.572,0
			c-1.263,9.473,5.266,21.172,14.221,25.379c8.517,4,22.494,4.44,33.383-9.079c2.913,2.283,5.832,4.57,8.805,6.899
			c-4.682,7.213-10.84,12.204-18.888,14.647c-8.38,2.543-16.878,2.737-25.297,0.276c-12.068-3.527-20.422-11.419-24.291-23.236
			c-4.596-14.037-4.285-28.258,1.771-41.909c4.835-10.903,13.1-18.246,24.858-21.084c7.74-1.868,15.436-1.253,22.785,1.896
			c8.179,3.505,13.4,9.854,16.615,17.997c2.807,7.108,3.492,14.565,3.606,22.112C468.023,429.104,467.999,431.012,467.999,433.299z
			 M410.637,420.594c14.388,0,28.475,0,42.834,0c-0.236-2.09-0.353-3.995-0.683-5.864c-0.805-4.554-2.494-8.703-5.606-12.237
			c-6.47-7.345-20.541-7.86-28.18-0.446C413.8,407.094,411.626,413.433,410.637,420.594z"/>
		<path fill-rule="evenodd" clip-rule="evenodd" fill="#03A8FF" d="M263.325,428.434c0.144-9.686,2.133-18.813,7.335-27.025
			c6.875-10.853,16.86-16.494,29.682-17.096c7.242-0.34,14.201,0.798,20.611,4.349c7.709,4.271,13.313,10.577,16.441,18.737
			c5.482,14.302,5.647,28.792-0.208,43.033c-6.669,16.218-22.113,24.036-38.82,22.437c-9.597-0.918-17.649-4.771-24.057-11.991
			c-5.122-5.771-8.257-12.537-9.579-20.085C264.017,436.716,263.778,432.556,263.325,428.434z M326.829,428.428
			c-0.246-2.783-0.347-5.588-0.769-8.344c-0.938-6.127-3.284-11.635-7.423-16.358c-8.06-9.199-23.695-9.172-31.62-0.86
			c-2.988,3.134-5.1,6.729-6.479,10.801c-1.634,4.825-2.167,9.834-2.277,14.874c-0.129,5.87,0.483,11.678,2.771,17.159
			c3.583,8.583,9.511,14.351,19.188,15.231c6.78,0.616,12.831-1.134,17.751-6.077c2.877-2.889,4.863-6.322,6.21-10.14
			C326.039,439.45,326.69,433.997,326.829,428.428z"/>
		<path fill-rule="evenodd" clip-rule="evenodd" fill="#FF2A90" d="M19.455,337.144c-0.187,1.331-0.359,2.664-0.563,3.991
			c-1.238,8.057-2.444,16.12-3.737,24.168c-1.497,9.318-2.785,18.658-3.492,28.075c-0.123,1.63,0.119,3.146,0.625,4.7
			c5.69,17.479,11.464,34.932,16.94,52.478c3.047,9.765,5.509,19.712,7.126,29.829c0.45,2.814,0.487,5.729,0.391,8.588
			c-0.114,3.371-1.969,5.914-4.819,7.569c-3.435,1.994-7.171,3.134-11.202,3.024c-3.434-0.093-5.643-1.67-6.47-4.98
			c-0.539-2.156-0.763-4.41-0.934-6.636c-0.999-12.993-1.9-25.993-2.922-38.984c-0.37-4.697-1.011-9.373-1.463-14.064
			c-0.114-1.185-0.58-2.123-1.315-3.005c-6.508-7.804-13.072-15.554-20.626-22.396c-6.045-5.476-12.043-11.002-18.105-16.459
			c-1.453-1.308-3.076-2.427-4.483-3.859c5.904,1.181,10.534,4.892,15.586,7.75c5.102,2.887,9.945,6.163,14.122,10.281
			c4.193,4.134,8.171,8.485,12.581,13.094c-0.655-2.978-1.069-5.645-1.835-8.208c-3.708-12.404-7.476-24.791-11.289-37.163
			c-2.682-8.704-5.369-17.409-8.259-26.045c-1.29-3.854-3.087-7.538-4.649-11.301c-0.201-0.483-0.372-0.979-0.18-1.718
			c0.642,0.665,1.394,1.254,1.908,2.006c3.427,5.012,6.951,9.966,10.161,15.115c5.124,8.222,9.516,16.841,13.157,25.831
			c0.198,0.49,0.463,0.952,0.882,1.413c0.934-7.522,2.013-14.979,3.919-22.278c1.915-7.332,4.638-14.353,8.219-21.014
			C18.97,337.011,19.212,337.077,19.455,337.144z"/>
		<path fill-rule="evenodd" clip-rule="evenodd" fill="#05A9FF" d="M375.508,471.215c-4.983,0-9.676,0-14.536,0
			c0-40.384,0-80.709,0-121.346c2.421,0,4.791,0,7.161,0c2.315,0,4.631,0,6.837,0c0.166,0.159,0.227,0.212,0.281,0.27
			c0.053,0.057,0.139,0.115,0.146,0.179c0.046,0.476,0.106,0.952,0.106,1.429C375.508,391.473,375.508,431.197,375.508,471.215z"/>
		<path fill-rule="evenodd" clip-rule="evenodd" fill="#FF2B90" d="M666.215,385.996c4.648,0,9.178,0,14.008,0
			c0.116,2.792,0.233,5.605,0.373,8.976c1.698-1.848,2.909-3.4,4.36-4.68c1.486-1.312,3.105-2.553,4.854-3.465
			c1.748-0.911,3.687-1.568,5.617-1.982c1.933-0.414,3.956-0.477,5.945-0.534c1.985-0.057,4.002-0.043,5.841,1.087
			c0,4.388,0,8.76,0,13.394c-1.435-0.09-2.765-0.125-4.083-0.265c-3.3-0.351-6.56-0.092-9.753,0.732
			c-5.615,1.45-9.627,4.91-12.038,10.146c-0.476,1.032-0.564,2.314-0.566,3.482c-0.033,18.473-0.023,36.945-0.023,55.418
			c0,0.869,0,1.738,0,2.559c-1.779,0.54-11.178,0.68-14.535,0.238C666.215,442.849,666.215,414.574,666.215,385.996z"/>
		<path fill-rule="evenodd" clip-rule="evenodd" fill="#0BABFF" d="M54.275,372.684c0.258,1.622,0.481,2.951,0.677,4.284
			c0.081,0.549,0.177,1.114,0.13,1.661c-0.075,0.879-0.572,1.511-1.476,1.649c-0.904,0.139-1.591-0.323-1.909-1.128
			c-0.289-0.734-0.405-1.54-0.568-2.32c-0.229-1.087-0.43-2.181-0.677-3.447c-1.144,0.168-2.154,0.318-3.164,0.466
			c-0.552,0.081-1.107,0.234-1.657,0.216c-0.961-0.032-1.72-0.468-1.898-1.493c-0.179-1.03,0.385-1.712,1.302-2.016
			c0.829-0.274,1.712-0.384,2.571-0.567c0.62-0.132,1.24-0.263,2.188-0.465c-0.464-2.686-0.918-5.308-1.396-8.072
			c-7.135-0.069-13.097-2.492-17.636-7.921c-3.413-4.083-5.083-8.835-5.044-14.146c0.077-10.498,8.002-19.625,18.331-21.187
			c10.42-1.576,20.6,4.496,23.894,14.265c2.078,6.165,1.586,12.122-1.573,17.817c-3.115,5.615-8.035,8.938-14.216,10.707
			c0.481,2.691,0.927,5.184,1.409,7.88c1.2-0.183,2.205-0.341,3.211-0.489c0.551-0.081,1.106-0.22,1.656-0.203
			c0.977,0.029,1.706,0.5,1.858,1.526c0.151,1.021-0.396,1.712-1.325,2.007c-0.833,0.265-1.713,0.378-2.574,0.554
			C55.772,372.39,55.155,372.509,54.275,372.684z M29.374,339.598c-0.021,10.067,8.125,18.337,18.08,18.166
			c11.278-0.195,18.135-9.13,18.101-18.176c-0.037-9.91-8.104-18.012-17.987-18.06C37.54,321.479,29.394,329.569,29.374,339.598z"/>
		<path fill-rule="evenodd" clip-rule="evenodd" fill="#0CABFF" d="M-30.864,298.215c1.84-2.727,3.533-5.236,5.383-7.979
			c-0.752-0.545-1.434-1.038-2.113-1.533c-0.645-0.47-1.34-0.887-1.919-1.428c-0.722-0.676-0.872-1.551-0.288-2.387
			c0.582-0.834,1.466-1.033,2.333-0.548c1.322,0.738,2.577,1.597,4.143,2.583c0.718-1.015,1.423-2.034,2.152-3.035
			c0.469-0.643,0.91-1.328,1.481-1.869c0.643-0.609,1.459-0.647,2.202-0.116c0.74,0.529,0.992,1.318,0.608,2.118
			c-0.446,0.929-1.059,1.78-1.614,2.656c-0.504,0.794-1.029,1.574-1.615,2.466c1.07,0.74,1.987,1.367,2.896,2.004
			c0.392,0.275,0.809,0.531,1.144,0.866c0.694,0.692,0.917,1.525,0.351,2.386c-0.65,0.988-1.633,1.016-2.542,0.509
			c-1.315-0.732-2.549-1.609-4.046-2.572c-1.838,2.73-3.608,5.358-5.482,8.143c4.913,4.98,7.458,10.828,6.726,17.801
			c-0.537,5.118-2.721,9.521-6.504,13.018c-7.761,7.172-19.243,7.494-27.431,0.859c-7.774-6.299-9.914-17.618-4.95-26.242
			c2.934-5.097,7.214-8.434,12.918-9.975C-41.4,294.42-36.128,295.439-30.864,298.215z M-58.957,316.048
			c-0.004,9.563,7.714,17.306,17.209,17.264c9.544-0.042,17.187-7.768,17.143-17.331c-0.043-9.481-7.626-17.073-17.091-17.112
			C-51.274,298.829-58.953,306.471-58.957,316.048z"/>
		<path fill-rule="evenodd" clip-rule="evenodd" fill="#0BABFF" d="M-61.015,361.59c2.13-0.167,4.26-0.334,6.532-0.512
			c0.806-6.312,3.566-11.252,8.987-14.419c3.711-2.168,7.707-2.902,11.994-2.176c8.426,1.427,14.82,8.905,14.871,17.507
			c0.05,8.589-6.21,16.072-14.71,17.633c-4.903,0.9-9.36-0.168-13.433-2.95c-4.102-2.801-6.353-6.837-7.497-11.804
			c-2.013,0.187-3.93,0.364-6.384,0.591c0.959,0.67,1.445,0.935,1.836,1.3c0.641,0.599,0.981,1.467,0.408,2.137
			c-0.442,0.517-1.296,0.719-2.002,0.953c-0.246,0.081-0.606-0.144-0.901-0.261c-2.375-0.943-4.772-1.835-7.112-2.859
			c-2.406-1.052-2.709-2.971-0.711-4.627c2.029-1.682,4.165-3.233,6.266-4.826c0.314-0.238,0.705-0.561,1.042-0.541
			c0.666,0.04,1.465,0.111,1.941,0.499c0.686,0.558,0.633,1.47,0.085,2.169c-0.487,0.621-1.118,1.128-1.684,1.686
			c-0.06,0.18-0.12,0.359-0.181,0.538C-61.452,361.615-61.233,361.603-61.015,361.59z M-36.533,376.292
			c7.834,0.004,14.175-6.272,14.241-14.096c0.066-7.917-6.314-14.353-14.232-14.355c-7.83-0.002-14.173,6.283-14.235,14.106
			C-50.822,369.88-44.467,376.288-36.533,376.292z"/>
		<path fill-rule="evenodd" clip-rule="evenodd" fill="#0CABFF" d="M-44.486,417.256c0.699,1.224,1.431,2.504,2.227,3.898
			c0.573-0.325,0.992-0.532,1.378-0.787c2.223-1.471,3.193-1.618,3.987-0.587c0.832,1.081,0.334,2.054-1.894,3.75
			c-0.434,0.331-0.833,0.707-1.362,1.159c0.42,0.822,0.854,1.571,1.194,2.359c0.529,1.223,0.274,2.299-0.642,2.721
			c-1.035,0.476-1.867,0.093-2.5-0.778c-0.418-0.574-0.797-1.177-1.339-1.982c-0.897,0.583-1.722,1.167-2.59,1.674
			c-1.21,0.708-2.161,0.599-2.782-0.243c-0.628-0.851-0.464-1.84,0.567-2.729c0.841-0.724,1.767-1.35,2.888-2.195
			c-0.874-1.535-1.715-3.016-2.603-4.575c-5.551,2.028-10.856,2.01-15.986-0.624c-4.142-2.126-7.124-5.382-8.849-9.713
			c-3.524-8.849-0.049-18.558,8.304-23.346c7.752-4.443,17.972-2.479,23.618,4.541c3.387,4.212,4.67,9.03,4.044,14.362
			C-37.349,408.605-38.805,411.055-44.486,417.256z M-55.417,386.522c-8.401,0.022-15.052,6.678-15.069,15.081
			c-0.017,8.411,6.585,15.101,14.999,15.148c7.868,0.045,15.279-5.924,15.218-15.198C-40.33,392.273-47.738,386.505-55.417,386.522z
			"/>
		<path fill-rule="evenodd" clip-rule="evenodd" fill="#0BABFF" d="M4.441,331.696c0.167,2.475,0.327,4.852,0.497,7.36
			c1.015-0.263,1.16-1.153,1.63-1.721c0.866-1.045,1.834-1.384,2.682-0.913c0.962,0.536,1.218,1.679,0.463,2.933
			c-1.317,2.188-2.683,4.354-4.139,6.451c-1.073,1.545-2.585,1.726-3.834,0.327c-1.75-1.96-3.305-4.1-4.882-6.208
			c-0.632-0.845-0.695-1.825,0.167-2.595c0.768-0.685,1.606-0.534,2.411,0.033c0.363,0.255,0.763,0.458,1.532,0.912
			c-0.111-2.396-0.206-4.417-0.307-6.593c-5.178-0.946-9.333-3.351-11.94-7.983c-1.79-3.18-2.403-6.597-1.75-10.178
			c1.383-7.586,7.812-12.927,15.373-12.856c7.387,0.069,13.844,5.48,15.08,12.638C18.891,321.814,14.508,328.135,4.441,331.696z
			 M14.086,316.171c0.012-6.532-5.395-11.946-11.901-11.917c-6.571,0.029-11.871,5.405-11.822,11.976
			c0.045,6.09,4.625,11.74,11.757,11.766C9.983,328.025,14.102,321.645,14.086,316.171z M0.878,338.318
			c-0.059,0.049-0.159,0.093-0.166,0.148c-0.007,0.056,0.078,0.124,0.123,0.186c0.059-0.049,0.158-0.093,0.166-0.149
			C1.009,338.448,0.923,338.38,0.878,338.318z"/>
		<path fill-rule="evenodd" clip-rule="evenodd" fill="#0CABFF" d="M28.059,394.926c-0.443,1.773-0.854,3.392-1.248,5.014
			c-0.089,0.366-0.116,0.747-0.204,1.342c0.707-0.245,1.212-0.59,1.677-0.542c0.65,0.066,1.525,0.252,1.833,0.706
			c0.313,0.464,0.345,1.604,0.001,1.944c-1.692,1.679-3.443,3.343-5.389,4.705c-1.188,0.832-2.929-0.091-3.696-1.694
			c-0.827-1.729-1.573-3.501-2.27-5.287c-0.557-1.426-0.251-2.48,0.762-2.879c1.214-0.478,1.969,0.173,2.545,1.165
			c0.116,0.2,0.265,0.381,0.68,0.967c0.588-2.336,1.092-4.342,1.633-6.492c-3.88-2.296-6.504-5.463-7.179-9.966
			c-0.442-2.954,0.139-5.729,1.628-8.309c3.102-5.371,9.393-7.748,15.303-5.798c5.832,1.924,9.494,7.685,8.731,13.854
			c-0.442,3.58-2.15,6.486-5.003,8.702C35.003,394.582,31.69,395.229,28.059,394.926z M30.002,372.755
			c-5.179,0.009-9.248,4.084-9.265,9.281c-0.017,5.152,4.097,9.473,9.207,9.397c5.257-0.078,9.343-3.85,9.435-9.455
			C39.461,376.876,35.15,372.746,30.002,372.755z"/>
		<path fill-rule="evenodd" clip-rule="evenodd" fill="#0BABFF" d="M-15.583,421.879c0.736,0.27,1.393,0.511,2.228,0.817
			c0-0.753-0.145-1.396,0.038-1.925c0.213-0.619,0.592-1.338,1.116-1.658c0.755-0.46,1.603-0.1,2.087,0.633
			c0.481,0.727,0.834,1.542,1.2,2.339c0.634,1.378,1.291,2.751,1.835,4.165c0.54,1.402,0.167,2.221-1.335,2.804
			c-1.486,0.577-3.033,0.997-4.558,1.472c-1.006,0.313-1.961,0.213-2.54-0.747c-0.6-0.994-0.205-1.832,0.679-2.485
			c0.187-0.138,0.35-0.306,0.664-0.584c-0.637-0.316-1.168-0.608-1.723-0.846c-0.503-0.216-1.033-0.372-1.47-0.525
			c-5.237,3.756-9.155,4.022-12.703,0.941c-3.121-2.71-3.973-7.024-2.109-10.673c1.812-3.548,5.855-5.446,9.664-4.538
			C-17.808,412.189-15.709,415.386-15.583,421.879z M-24.287,424.756c2.88-0.04,5.1-2.342,5.048-5.232
			c-0.053-2.904-2.315-5.074-5.237-5.024c-2.886,0.049-5.13,2.358-5.064,5.213C-29.474,422.579-27.165,424.796-24.287,424.756z"/>
		<path fill-rule="evenodd" clip-rule="evenodd" fill="#09AAFF" d="M-22.764,388.44c-0.172,0.615-0.356,1.299-0.556,1.979
			c-0.31,1.053-0.985,1.689-2.114,1.478c-1.12-0.21-1.53-1.076-1.507-2.138c0.013-0.622,0.129-1.241,0.194-1.821
			c-2.776-1.146-3.314-1.68-2.978-2.884c0.302-1.079,1.012-1.363,3.371-1.278c0.2-0.611,0.385-1.278,0.635-1.92
			c0.359-0.925,1.041-1.43,2.054-1.243c0.896,0.166,1.358,0.817,1.442,1.69c0.061,0.627,0.012,1.266,0.012,2.026
			c0.564,0.141,1.161,0.291,1.819,0.455c0.507-0.704,0.938-1.364,1.43-1.975c2.265-2.803,6.013-3.721,9.299-2.299
			c3.341,1.447,5.185,4.921,4.579,8.63c-0.549,3.358-3.364,5.974-6.864,6.377c-3.567,0.412-6.875-1.53-8.164-4.947
			C-20.585,389.316-20.884,388.1-22.764,388.44z M-12.815,383.44c-2.335-0.004-4.199,1.849-4.252,4.227
			c-0.053,2.328,1.809,4.28,4.139,4.339c2.396,0.061,4.464-1.973,4.422-4.349C-8.548,385.356-10.5,383.445-12.815,383.44z"/>
		<path fill-rule="evenodd" clip-rule="evenodd" fill="none" d="M230.139,428.521c0,5.92-0.025,11.839,0.019,17.759
			c0.01,1.33-0.315,2.464-0.987,3.615c-6.086,10.433-17.72,12.372-26.465,9.518c-4.97-1.622-8.417-5.086-10.954-9.544
			c-2.583-4.54-3.764-9.515-4.17-14.646c-0.584-7.371-0.358-14.728,1.823-21.863c0.717-2.349,1.707-4.678,2.959-6.786
			c3.809-6.419,9.548-9.642,17.039-9.813c8.333-0.191,14.903,2.956,19.538,9.984c0.82,1.243,1.248,2.49,1.229,4.018
			C230.095,416.681,230.139,422.601,230.139,428.521z"/>
		<path fill-rule="evenodd" clip-rule="evenodd" fill="none" d="M93.073,428.806c6.445-17.798,12.8-35.346,19.139-52.848
			c0.188-0.019,0.266-0.039,0.341-0.03c0.07,0.007,0.182,0.029,0.198,0.072c6.33,17.33,12.655,34.661,18.966,51.997
			c0.073,0.199-0.022,0.46-0.047,0.809C118.954,428.806,106.268,428.806,93.073,428.806z"/>
		<path fill-rule="evenodd" clip-rule="evenodd" fill="none" d="M634.909,420.664c-14.477,0-28.498,0-42.774,0
			c0.136-1.025,0.213-1.942,0.384-2.842c1.156-6.091,3.486-11.561,8.092-15.934c7.593-7.21,21.558-6.727,28.003,0.594
			c3.167,3.598,4.872,7.823,5.646,12.47C634.559,416.746,634.677,418.569,634.909,420.664z"/>
		<path fill-rule="evenodd" clip-rule="evenodd" fill="none" d="M410.637,420.594c0.989-7.161,3.163-13.5,8.365-18.548
			c7.639-7.414,21.71-6.898,28.18,0.446c3.112,3.534,4.802,7.684,5.606,12.237c0.33,1.869,0.446,3.774,0.683,5.864
			C439.111,420.594,425.024,420.594,410.637,420.594z"/>
		<path fill-rule="evenodd" clip-rule="evenodd" fill="none" d="M326.829,428.428c-0.139,5.569-0.79,11.022-2.646,16.286
			c-1.347,3.817-3.333,7.251-6.21,10.14c-4.921,4.943-10.972,6.693-17.751,6.077c-9.677-0.881-15.605-6.648-19.188-15.231
			c-2.288-5.481-2.9-11.289-2.771-17.159c0.111-5.04,0.644-10.049,2.277-14.874c1.378-4.072,3.491-7.667,6.479-10.801
			c7.924-8.312,23.56-8.339,31.62,0.86c4.139,4.724,6.484,10.231,7.423,16.358C326.482,422.84,326.583,425.645,326.829,428.428z"/>
		<path fill-rule="evenodd" clip-rule="evenodd" fill="none" d="M29.374,339.598c0.02-10.028,8.166-18.118,18.193-18.07
			c9.884,0.048,17.95,8.15,17.987,18.06c0.034,9.045-6.823,17.981-18.101,18.176C37.499,357.935,29.354,349.665,29.374,339.598z"/>
		<path fill-rule="evenodd" clip-rule="evenodd" fill="none" d="M-58.957,316.048c0.004-9.577,7.683-17.219,17.261-17.179
			c9.465,0.04,17.047,7.631,17.091,17.112c0.044,9.563-7.598,17.289-17.143,17.331C-51.243,333.354-58.961,325.61-58.957,316.048z"
			/>
		<path fill-rule="evenodd" clip-rule="evenodd" fill="none" d="M-36.533,376.292c-7.934-0.004-14.289-6.412-14.226-14.345
			c0.062-7.823,6.405-14.108,14.235-14.106c7.918,0.002,14.298,6.438,14.232,14.355C-22.357,370.02-28.698,376.296-36.533,376.292z"
			/>
		<path fill-rule="evenodd" clip-rule="evenodd" fill="none" d="M-61.015,361.59c-0.218,0.013-0.437,0.025-0.655,0.038
			c0.061-0.179,0.122-0.358,0.181-0.538C-61.332,361.256-61.173,361.423-61.015,361.59z"/>
		<path fill-rule="evenodd" clip-rule="evenodd" fill="none" d="M-55.417,386.522c7.679-0.017,15.087,5.751,15.148,15.031
			c0.061,9.274-7.35,15.243-15.218,15.198c-8.414-0.048-15.015-6.737-14.999-15.148C-70.469,393.2-63.819,386.544-55.417,386.522z"
			/>
		<path fill-rule="evenodd" clip-rule="evenodd" fill="none" d="M14.086,316.171c0.016,5.474-4.104,11.854-11.966,11.825
			c-7.131-0.026-11.711-5.676-11.757-11.766c-0.049-6.571,5.251-11.947,11.822-11.976C8.692,304.226,14.098,309.639,14.086,316.171z
			"/>
		<path fill-rule="evenodd" clip-rule="evenodd" fill="none" d="M0.878,338.318c0.045,0.062,0.13,0.13,0.123,0.185
			c-0.007,0.056-0.106,0.1-0.166,0.149c-0.045-0.062-0.13-0.129-0.123-0.186C0.72,338.411,0.819,338.367,0.878,338.318z"/>
		<path fill-rule="evenodd" clip-rule="evenodd" fill="none" d="M30.002,372.755c5.148-0.009,9.459,4.121,9.376,9.223
			c-0.092,5.605-4.178,9.377-9.435,9.455c-5.109,0.076-9.224-4.245-9.207-9.397C20.754,376.84,24.823,372.764,30.002,372.755z"/>
		<path fill-rule="evenodd" clip-rule="evenodd" fill="none" d="M-24.287,424.756c-2.877,0.04-5.187-2.177-5.253-5.044
			c-0.066-2.854,2.178-5.164,5.064-5.213c2.921-0.05,5.184,2.12,5.237,5.024C-19.187,422.414-21.407,424.716-24.287,424.756z"/>
		<path fill-rule="evenodd" clip-rule="evenodd" fill="none" d="M-12.815,383.44c2.315,0.004,4.268,1.916,4.309,4.218
			c0.042,2.376-2.026,4.41-4.422,4.349c-2.33-0.059-4.191-2.011-4.139-4.339C-17.014,385.289-15.15,383.436-12.815,383.44z"/>
	</g>
</g>
</svg>
